<svg xmlns="http://www.w3.org/2000/svg" xmlns:xlink="http://www.w3.org/1999/xlink" width="263" zoomAndPan="magnify" viewBox="0 0 197.25 149.999998" height="200" preserveAspectRatio="xMidYMid meet" version="1.0"><defs><clipPath id="b6111d2307"><path d="M 77.113281 45.113281 L 119.703125 45.113281 L 119.703125 104.886719 L 77.113281 104.886719 Z M 77.113281 45.113281 " clip-rule="nonzero"/></clipPath></defs><g clip-path="url(#b6111d2307)"><path fill="#b07e09" d="M 77.992188 46.65625 C 77.992188 46.308594 78.28125 46.023438 78.628906 46.023438 C 78.976562 46.023438 79.265625 46.308594 79.265625 46.65625 C 79.265625 47 78.976562 47.289062 78.628906 47.289062 C 78.28125 47.289062 77.992188 47 77.992188 46.65625 Z M 117.550781 46.65625 C 117.550781 47 117.839844 47.289062 118.1875 47.289062 C 118.535156 47.289062 118.824219 47 118.824219 46.65625 C 118.824219 46.308594 118.535156 46.023438 118.1875 46.023438 C 117.824219 46.035156 117.550781 46.308594 117.550781 46.65625 Z M 79.265625 103.355469 C 79.265625 103.011719 78.976562 102.722656 78.628906 102.722656 C 78.28125 102.722656 77.992188 103.011719 77.992188 103.355469 C 77.992188 103.703125 78.28125 103.988281 78.628906 103.988281 C 78.976562 103.988281 79.265625 103.703125 79.265625 103.355469 Z M 118.1875 102.710938 C 117.839844 102.710938 117.550781 103 117.550781 103.34375 C 117.550781 103.691406 117.839844 103.976562 118.1875 103.976562 C 118.535156 103.976562 118.824219 103.691406 118.824219 103.34375 C 118.8125 103 118.535156 102.710938 118.1875 102.710938 Z M 119.703125 45.28125 L 119.703125 104.71875 C 119.703125 104.789062 119.640625 104.835938 119.582031 104.835938 L 77.234375 104.835938 C 77.160156 104.835938 77.113281 104.777344 77.113281 104.71875 L 77.113281 45.28125 C 77.113281 45.210938 77.171875 45.164062 77.234375 45.164062 L 119.582031 45.164062 C 119.640625 45.164062 119.703125 45.222656 119.703125 45.28125 Z M 112.320312 45.414062 C 112.378906 45.855469 112.765625 46.203125 113.234375 46.203125 L 115.46875 46.203125 C 115.636719 45.867188 115.914062 45.582031 116.25 45.414062 Z M 118.402344 100.492188 L 118.402344 99.226562 C 118.402344 99.226562 118.402344 99.226562 118.402344 99.214844 L 118.402344 94.789062 C 117.464844 99.179688 113.953125 102.640625 109.515625 103.535156 L 115.359375 103.535156 C 115.300781 103.367188 115.277344 103.191406 115.277344 103 C 115.277344 101.566406 116.457031 100.410156 117.886719 100.410156 C 118.066406 100.421875 118.234375 100.445312 118.402344 100.492188 Z M 77.367188 104.5625 L 78.699219 104.5625 C 79.433594 104.5625 80.035156 103.964844 80.035156 103.238281 C 80.035156 102.507812 79.433594 101.914062 78.699219 101.914062 C 77.96875 101.914062 77.367188 102.507812 77.367188 103.238281 Z M 79.542969 104.5625 L 79.734375 104.5625 C 80.589844 104.5625 81.285156 103.871094 81.285156 103.023438 C 81.285156 101.722656 80.226562 100.671875 78.917969 100.671875 C 78.710938 100.671875 78.519531 100.707031 78.339844 100.777344 C 77.773438 101.003906 77.367188 101.566406 77.367188 102.210938 L 77.367188 102.402344 C 77.644531 101.960938 78.136719 101.675781 78.699219 101.675781 C 79.566406 101.675781 80.277344 102.378906 80.277344 103.238281 C 80.277344 103.796875 79.976562 104.289062 79.542969 104.5625 Z M 77.367188 47.800781 C 77.367188 48.445312 77.761719 48.996094 78.339844 49.234375 C 78.519531 49.304688 78.710938 49.339844 78.917969 49.339844 C 80.226562 49.339844 81.285156 48.289062 81.285156 46.988281 C 81.285156 46.140625 80.589844 45.449219 79.734375 45.449219 L 79.542969 45.449219 C 79.988281 45.722656 80.277344 46.214844 80.277344 46.773438 C 80.277344 47.632812 79.566406 48.335938 78.699219 48.335938 C 78.148438 48.335938 77.65625 48.050781 77.367188 47.609375 Z M 78.6875 48.085938 C 79.421875 48.085938 80.023438 47.492188 80.023438 46.761719 C 80.023438 46.035156 79.421875 45.4375 78.6875 45.4375 L 77.367188 45.4375 L 77.367188 46.761719 C 77.367188 47.503906 77.957031 48.085938 78.6875 48.085938 Z M 119.449219 45.449219 L 118.113281 45.449219 C 117.382812 45.449219 116.78125 46.046875 116.78125 46.773438 C 116.78125 47.503906 117.382812 48.097656 118.113281 48.097656 C 118.847656 48.097656 119.449219 47.503906 119.449219 46.773438 Z M 117.273438 45.449219 L 117.082031 45.449219 C 116.226562 45.449219 115.53125 46.140625 115.53125 46.988281 C 115.53125 48.289062 116.585938 49.339844 117.898438 49.339844 C 118.101562 49.339844 118.292969 49.304688 118.476562 49.234375 C 119.039062 49.007812 119.449219 48.445312 119.449219 47.800781 L 119.449219 47.609375 C 119.171875 48.050781 118.679688 48.335938 118.113281 48.335938 C 117.25 48.335938 116.539062 47.632812 116.539062 46.773438 C 116.539062 46.214844 116.828125 45.722656 117.273438 45.449219 Z M 118.644531 51.585938 C 118.644531 52.050781 118.992188 52.429688 119.4375 52.492188 L 119.4375 48.707031 C 119.257812 49.019531 118.96875 49.269531 118.644531 49.425781 Z M 115.277344 46.988281 C 115.277344 46.796875 115.3125 46.621094 115.359375 46.453125 L 109.589844 46.453125 C 113.992188 47.382812 117.453125 50.820312 118.378906 55.1875 L 118.378906 49.519531 C 118.222656 49.566406 118.054688 49.589844 117.875 49.589844 C 116.457031 49.589844 115.277344 48.421875 115.277344 46.988281 Z M 107.269531 46.453125 L 101.605469 46.453125 C 104.746094 46.941406 107.703125 48.160156 110.3125 50.042969 C 110.742188 49.578125 111.355469 49.304688 112.007812 49.304688 C 113.28125 49.304688 114.328125 50.332031 114.328125 51.609375 C 114.328125 52.179688 114.109375 52.730469 113.726562 53.148438 C 116.214844 56 117.824219 59.484375 118.414062 63.183594 L 118.414062 57.539062 C 118.402344 51.429688 113.402344 46.464844 107.269531 46.453125 Z M 77.367188 52.492188 C 77.8125 52.429688 78.160156 52.050781 78.160156 51.585938 L 78.160156 49.425781 C 77.824219 49.269531 77.546875 49.019531 77.367188 48.707031 Z M 84.785156 49.554688 C 83.640625 49.554688 82.714844 50.472656 82.714844 51.609375 C 82.714844 52.167969 82.945312 52.683594 83.316406 53.050781 C 83.1875 52.8125 83.101562 52.539062 83.101562 52.242188 C 83.101562 51.320312 83.859375 50.570312 84.785156 50.570312 C 85.710938 50.570312 86.46875 51.320312 86.46875 52.242188 C 86.46875 52.539062 86.382812 52.8125 86.25 53.050781 C 86.625 52.683594 86.851562 52.167969 86.851562 51.609375 C 86.839844 50.472656 85.914062 49.554688 84.785156 49.554688 Z M 84.929688 53.648438 C 85.652344 53.578125 86.203125 52.96875 86.203125 52.242188 C 86.203125 51.453125 85.566406 50.820312 84.773438 50.820312 C 83.980469 50.820312 83.34375 51.453125 83.34375 52.242188 C 83.34375 52.96875 83.90625 53.578125 84.617188 53.648438 C 84.664062 53.648438 84.710938 53.660156 84.773438 53.660156 C 84.832031 53.660156 84.882812 53.648438 84.929688 53.648438 Z M 78.414062 66.300781 L 78.414062 83.722656 C 78.414062 88.472656 80.132812 93.070312 83.257812 96.660156 C 83.679688 96.292969 84.207031 96.089844 84.773438 96.089844 C 86.046875 96.089844 87.09375 97.113281 87.09375 98.390625 C 87.09375 98.894531 86.9375 99.359375 86.636719 99.765625 C 89.847656 102.09375 93.621094 103.394531 97.589844 103.546875 L 99.296875 103.546875 C 103.21875 103.378906 106.96875 102.078125 110.144531 99.789062 C 109.84375 99.394531 109.675781 98.90625 109.675781 98.402344 C 109.675781 97.140625 110.707031 96.101562 111.996094 96.101562 C 112.570312 96.101562 113.113281 96.316406 113.535156 96.683594 C 116.660156 93.09375 118.390625 88.511719 118.390625 83.761719 L 118.390625 66.25 C 118.378906 61.488281 116.648438 56.90625 113.519531 53.316406 C 113.101562 53.683594 112.558594 53.898438 111.984375 53.898438 C 110.707031 53.898438 109.660156 52.871094 109.660156 51.597656 C 109.660156 51.09375 109.832031 50.617188 110.117188 50.222656 C 106.703125 47.753906 102.664062 46.453125 98.417969 46.441406 L 98.335938 46.441406 C 94.089844 46.453125 90.039062 47.765625 86.625 50.234375 C 86.925781 50.628906 87.09375 51.09375 87.09375 51.609375 C 87.09375 52.8125 86.144531 53.804688 84.953125 53.898438 C 84.894531 53.910156 84.832031 53.910156 84.773438 53.910156 C 84.710938 53.910156 84.652344 53.910156 84.59375 53.898438 C 84.085938 53.863281 83.617188 53.660156 83.257812 53.351562 C 80.132812 56.941406 78.414062 61.539062 78.414062 66.300781 Z M 111.996094 53.660156 C 112.789062 53.660156 113.425781 53.027344 113.425781 52.242188 C 113.425781 51.453125 112.789062 50.820312 111.996094 50.820312 C 111.199219 50.820312 110.5625 51.453125 110.5625 52.242188 C 110.5625 52.980469 111.128906 53.578125 111.851562 53.648438 C 111.898438 53.648438 111.945312 53.660156 111.996094 53.660156 Z M 114.0625 51.609375 C 114.0625 50.472656 113.136719 49.554688 111.996094 49.554688 C 111.382812 49.554688 110.804688 49.816406 110.417969 50.28125 C 110.105469 50.652344 109.9375 51.117188 109.9375 51.609375 C 109.9375 52.167969 110.167969 52.683594 110.539062 53.050781 C 110.40625 52.8125 110.324219 52.539062 110.324219 52.242188 C 110.324219 51.320312 111.082031 50.570312 112.007812 50.570312 C 112.933594 50.570312 113.691406 51.320312 113.691406 52.242188 C 113.691406 52.539062 113.605469 52.8125 113.472656 53.050781 C 113.847656 52.65625 114.0625 52.15625 114.0625 51.609375 Z M 111.996094 100.433594 C 113.136719 100.433594 114.0625 99.515625 114.0625 98.378906 C 114.0625 97.832031 113.847656 97.316406 113.460938 96.9375 C 113.59375 97.175781 113.679688 97.460938 113.679688 97.746094 C 113.679688 98.667969 112.921875 99.417969 111.996094 99.417969 C 111.070312 99.417969 110.3125 98.667969 110.3125 97.746094 C 110.3125 97.449219 110.394531 97.175781 110.527344 96.9375 C 110.15625 97.304688 109.925781 97.820312 109.925781 98.378906 C 109.925781 98.871094 110.105469 99.335938 110.417969 99.703125 C 110.816406 100.171875 111.382812 100.433594 111.996094 100.433594 Z M 111.996094 96.328125 C 111.945312 96.328125 111.898438 96.328125 111.851562 96.339844 C 111.128906 96.410156 110.5625 97.019531 110.5625 97.746094 C 110.5625 98.535156 111.199219 99.167969 111.996094 99.167969 C 112.789062 99.167969 113.425781 98.535156 113.425781 97.746094 C 113.425781 96.972656 112.789062 96.328125 111.996094 96.328125 Z M 84.773438 96.328125 C 83.980469 96.328125 83.34375 96.960938 83.34375 97.746094 C 83.34375 98.535156 83.980469 99.167969 84.773438 99.167969 C 85.566406 99.167969 86.203125 98.535156 86.203125 97.746094 C 86.203125 97.007812 85.636719 96.410156 84.917969 96.339844 C 84.882812 96.339844 84.832031 96.328125 84.773438 96.328125 Z M 82.714844 98.378906 C 82.714844 99.515625 83.640625 100.433594 84.785156 100.433594 C 85.398438 100.433594 85.976562 100.171875 86.371094 99.691406 C 86.683594 99.324219 86.851562 98.871094 86.851562 98.378906 C 86.851562 97.820312 86.625 97.304688 86.25 96.9375 C 86.382812 97.175781 86.46875 97.449219 86.46875 97.746094 C 86.46875 98.667969 85.710938 99.417969 84.785156 99.417969 C 83.859375 99.417969 83.101562 98.667969 83.101562 97.746094 C 83.101562 97.460938 83.171875 97.1875 83.304688 96.949219 C 82.921875 97.328125 82.714844 97.84375 82.714844 98.378906 Z M 78.414062 92.460938 C 78.425781 98.558594 83.425781 103.523438 89.582031 103.523438 L 95.125 103.523438 C 92.011719 103.023438 89.066406 101.804688 86.492188 99.933594 C 86.046875 100.398438 85.445312 100.671875 84.796875 100.671875 C 83.523438 100.671875 82.476562 99.644531 82.476562 98.367188 C 82.476562 97.785156 82.691406 97.234375 83.089844 96.816406 C 80.613281 93.964844 79 90.492188 78.425781 86.804688 Z M 107.234375 103.523438 C 113.390625 103.523438 118.402344 98.546875 118.402344 92.4375 L 118.402344 86.816406 C 117.8125 90.503906 116.203125 93.988281 113.714844 96.839844 C 114.097656 97.257812 114.316406 97.796875 114.316406 98.378906 C 114.316406 99.644531 113.28125 100.683594 111.996094 100.683594 C 111.355469 100.683594 110.742188 100.421875 110.3125 99.957031 C 107.738281 101.816406 104.804688 103.023438 101.703125 103.535156 L 107.234375 103.535156 Z M 89.546875 46.453125 C 83.402344 46.476562 78.414062 51.441406 78.414062 57.539062 L 78.414062 63.183594 C 78.988281 59.496094 80.601562 56.023438 83.089844 53.171875 C 82.703125 52.765625 82.464844 52.214844 82.464844 51.609375 C 82.464844 50.34375 83.5 49.304688 84.785156 49.304688 C 85.457031 49.304688 86.070312 49.589844 86.492188 50.054688 C 89.101562 48.160156 92.070312 46.941406 95.222656 46.453125 Z M 87.203125 46.453125 L 81.441406 46.453125 C 81.503906 46.621094 81.527344 46.808594 81.527344 46.988281 C 81.527344 48.421875 80.347656 49.578125 78.917969 49.578125 C 78.738281 49.578125 78.570312 49.554688 78.414062 49.507812 L 78.414062 55.175781 C 79.339844 50.820312 82.8125 47.371094 87.203125 46.453125 Z M 77.367188 52.742188 L 77.367188 97.28125 C 77.691406 97.316406 77.980469 97.484375 78.171875 97.722656 L 78.171875 92.472656 C 78.171875 92.460938 78.171875 92.460938 78.171875 92.449219 L 78.171875 52.300781 C 77.96875 52.539062 77.691406 52.707031 77.367188 52.742188 Z M 78.160156 100.601562 L 78.160156 98.429688 C 78.160156 97.972656 77.8125 97.59375 77.367188 97.53125 L 77.367188 101.328125 C 77.546875 101.003906 77.824219 100.753906 78.160156 100.601562 Z M 80.636719 104.5625 L 84.460938 104.5625 C 84.398438 104.132812 84.039062 103.796875 83.59375 103.773438 L 81.359375 103.773438 C 81.214844 104.109375 80.949219 104.382812 80.636719 104.5625 Z M 87.226562 103.535156 C 82.824219 102.617188 79.351562 99.167969 78.414062 94.800781 L 78.414062 98.429688 C 78.414062 98.429688 78.414062 98.441406 78.414062 98.441406 L 78.414062 100.515625 C 78.570312 100.46875 78.738281 100.445312 78.917969 100.445312 C 80.359375 100.445312 81.527344 101.613281 81.527344 103.035156 C 81.527344 103.214844 81.503906 103.378906 81.453125 103.535156 L 83.546875 103.535156 C 83.570312 103.535156 83.582031 103.535156 83.605469 103.535156 Z M 119.449219 97.507812 C 119.003906 97.570312 118.65625 97.949219 118.65625 98.414062 L 118.65625 100.574219 C 118.992188 100.730469 119.269531 100.980469 119.449219 101.292969 Z M 119.449219 97.269531 L 119.449219 52.742188 C 119.125 52.707031 118.835938 52.539062 118.644531 52.300781 L 118.644531 66.265625 C 118.644531 66.277344 118.644531 66.289062 118.644531 66.3125 L 118.644531 83.722656 C 118.644531 83.734375 118.644531 83.75 118.644531 83.773438 L 118.644531 97.734375 C 118.835938 97.460938 119.125 97.304688 119.449219 97.269531 Z M 112.066406 45.414062 L 84.75 45.414062 C 84.710938 45.734375 84.542969 46.011719 84.304688 46.203125 L 89.546875 46.203125 C 89.558594 46.203125 89.570312 46.203125 89.582031 46.203125 L 107.234375 46.203125 C 107.246094 46.203125 107.257812 46.203125 107.269531 46.203125 L 112.523438 46.203125 C 112.269531 46.011719 112.101562 45.734375 112.066406 45.414062 Z M 80.5625 45.414062 C 80.902344 45.59375 81.175781 45.867188 81.347656 46.203125 L 83.582031 46.203125 C 84.050781 46.203125 84.4375 45.855469 84.496094 45.414062 Z M 84.710938 104.585938 L 112.113281 104.585938 C 112.152344 104.265625 112.320312 103.976562 112.558594 103.785156 L 99.019531 103.773438 C 98.804688 103.785156 98.601562 103.785156 98.394531 103.785156 C 98.238281 103.785156 98.082031 103.785156 97.9375 103.773438 L 84.269531 103.761719 C 84.519531 103.964844 84.6875 104.265625 84.710938 104.585938 Z M 117.082031 104.550781 L 117.273438 104.550781 C 116.828125 104.277344 116.539062 103.785156 116.539062 103.226562 C 116.539062 102.367188 117.25 101.664062 118.113281 101.664062 C 118.667969 101.664062 119.160156 101.949219 119.449219 102.390625 L 119.449219 102.199219 C 119.449219 101.554688 119.050781 101.003906 118.476562 100.765625 C 118.292969 100.695312 118.101562 100.660156 117.898438 100.660156 C 116.585938 100.660156 115.53125 101.710938 115.53125 103.011719 C 115.53125 103.859375 116.226562 104.550781 117.082031 104.550781 Z M 118.113281 101.914062 C 117.382812 101.914062 116.78125 102.507812 116.78125 103.238281 C 116.78125 103.964844 117.382812 104.5625 118.113281 104.5625 L 119.449219 104.5625 L 119.449219 103.238281 C 119.449219 102.507812 118.847656 101.914062 118.113281 101.914062 Z M 116.226562 104.585938 C 115.902344 104.40625 115.636719 104.132812 115.46875 103.796875 L 113.28125 103.796875 C 112.8125 103.796875 112.425781 104.144531 112.367188 104.585938 Z M 116.226562 104.585938 " fill-opacity="1" fill-rule="nonzero"/></g></svg>