<svg xmlns="http://www.w3.org/2000/svg" xmlns:xlink="http://www.w3.org/1999/xlink" id="Calque_1" x="0px" y="0px" viewBox="0 0 345.6 295.9" style="enable-background:new 0 0 345.6 295.9;" xml:space="preserve"><style type="text/css">	.st0{fill:url(#SVGID_1_);}	.st1{fill:#F6F6F6;}</style><g id="Calque_2_1_">	<g id="Calque_1-2">					<linearGradient id="SVGID_1_" gradientUnits="userSpaceOnUse" x1="197.15" y1="180.4248" x2="344.64" y2="180.4248" gradientTransform="matrix(1 0 0 -1 0 295.8898)">			<stop offset="0" style="stop-color:#B7872F"></stop>			<stop offset="0" style="stop-color:#FCF2AB"></stop>			<stop offset="1" style="stop-color:#CA9351"></stop>		</linearGradient>		<path class="st0" d="M344.6,230.9h-63.3l-84.2-119.6h48.3c22.7,0,34.7-10.5,35.9-31.5c0-21.3-12.3-32.1-36.8-32.4h-47.1v0.1   c-0.1-0.1-0.1-0.2-0.2-0.2V0h51.6c29.8,0,52.8,8.1,68.9,24.3c13,13.3,19.5,30.7,19.5,52.2c0,37.7-16.1,61.7-48.4,72L344.6,230.9z"></path>		<path class="st1" d="M198.1,230.8h-55.6v-99.5l-87.3,27.5v72H0V0.1h55.2v101.6l87.3-27.8V0.1h55.6V230.8z"></path>		<path class="st1" d="M11,260.2c-3.8,0.1-7.3,0.2-11,0.5v34.9h10.3c5.7,0,15.7-2.8,15.7-17.3C26,265.3,18.1,260.2,11,260.2z    M10.2,290.3H5.5v-24.5c1.7-0.1,3.2-0.1,5.1-0.2c5.6,0,9.9,4.6,9.9,12.9C20.5,286.4,16.4,290.3,10.2,290.3L10.2,290.3z"></path>		<polygon class="st1" points="47,295.6 52.5,295.6 52.5,260.4 47,260.6   "></polygon>		<polygon class="st1" points="75.1,295.6 80.5,295.6 80.5,282 91.8,282 91.8,277 80.5,277 80.5,265.6 96.8,265.6 96.8,260.6    75.1,260.6   "></polygon>		<polygon class="st1" points="113.8,295.6 119.3,295.6 119.3,282 130.6,282 130.6,277 119.3,277 119.3,265.6 135.6,265.6    135.6,260.6 113.8,260.6   "></polygon>		<path class="st1" d="M173.1,260.6l0.1,17c0-0.1-0.1-0.1-0.1-0.2c-0.8-1.4-2.6-3.5-3.4-5.9s-0.1-3.5,0.1-4s1.6-2.4-0.1-2.7   s-1.6,2-1.3,3.8c0.4,1.5,0.3,3.1-0.4,4.5c-0.6,1.2-1,0.5-1.3,1.4s0.6,3.8,0,6.4c-0.6,2.1-2.6,1.8-3.4,1.6   c-1.6-1.4-1.7-1.8-2.5-2.3c-1-0.7-2.1-1-3.3-1l0.1-18.9l-5.4,0.3L152,282c0,8.7,5.8,13.8,13.3,13.8c7.7,0,13.4-5.1,13.4-13.8   l-0.1-21.5L173.1,260.6z"></path>		<path class="st1" d="M210,265.5c3-0.1,5.6,1.9,6.1,4.8l5-1.2c-0.7-5-5.5-8.8-11.5-8.8c-6.2,0-11.1,4.1-11.1,9.5   c0,10.8,16.7,8.9,16.8,16c0.1,2.8-2.1,4.9-5.7,4.9c-3.1,0.1-5.7-2.2-6.1-5.3l-5.3,1.4c0.7,5,5.2,9.3,11.6,9.3   c7.2,0,11.3-4.6,11.3-10c0-11.5-16.1-9.4-16.5-16C204.4,267.8,206.5,265.5,210,265.5z"></path>		<polygon class="st1" points="241.9,295.6 247.4,295.6 247.4,260.4 241.9,260.6   "></polygon>		<path class="st1" d="M283.4,260.2c-7.8,0-15,5.8-15,17.3v1.1c0,11.5,7.2,17.3,15,17.3s15-5.8,15-17.3v-1.1   C298.4,266,291.1,260.2,283.4,260.2z M293,278.6c0,8.9-4.8,12.3-9.6,12.3s-9.5-3.5-9.5-12.3v-1.1c0-9,4.8-12.3,9.5-12.3   s9.6,3.4,9.6,12.3V278.6z"></path>		<polygon class="st1" points="340.1,260.6 340.1,286.2 323.9,260.5 318.7,260.8 318.7,295.6 324.2,295.6 324.2,270.1 340.6,295.6    345.6,295.6 345.6,260.6   "></polygon>	</g></g></svg>